<mxfile host="65bd71144e">
    <diagram id="PmTujglcPs3L-KenUEOM" name="Page-1">
        <mxGraphModel dx="1051" dy="900" grid="1" gridSize="10" guides="1" tooltips="1" connect="1" arrows="1" fold="1" page="1" pageScale="1" pageWidth="827" pageHeight="1169" math="0" shadow="0">
            <root>
                <mxCell id="0"/>
                <mxCell id="1" parent="0"/>
                <mxCell id="8" style="edgeStyle=elbowEdgeStyle;elbow=vertical;html=1;entryX=0;entryY=0.25;entryDx=0;entryDy=0;entryPerimeter=0;" edge="1" parent="1" source="2" target="7">
                    <mxGeometry relative="1" as="geometry"/>
                </mxCell>
                <mxCell id="2" value="a" style="verticalLabelPosition=bottom;shadow=0;dashed=0;align=center;html=1;verticalAlign=top;shape=mxgraph.electrical.logic_gates.inverting_contact;" vertex="1" parent="1">
                    <mxGeometry x="80" y="320" width="10" height="10" as="geometry"/>
                </mxCell>
                <mxCell id="12" style="edgeStyle=elbowEdgeStyle;elbow=vertical;html=1;entryX=0;entryY=0.25;entryDx=0;entryDy=0;entryPerimeter=0;" edge="1" parent="1" source="3" target="11">
                    <mxGeometry relative="1" as="geometry"/>
                </mxCell>
                <mxCell id="3" value="b" style="verticalLabelPosition=bottom;shadow=0;dashed=0;align=center;html=1;verticalAlign=top;shape=mxgraph.electrical.logic_gates.inverting_contact;" vertex="1" parent="1">
                    <mxGeometry x="80" y="400" width="10" height="10" as="geometry"/>
                </mxCell>
                <mxCell id="6" style="edgeStyle=elbowEdgeStyle;html=1;entryX=0;entryY=0.5;entryDx=0;entryDy=0;entryPerimeter=0;elbow=vertical;" edge="1" parent="1" source="4" target="5">
                    <mxGeometry relative="1" as="geometry"/>
                </mxCell>
                <mxCell id="14" style="html=1;entryX=0;entryY=0.75;entryDx=0;entryDy=0;entryPerimeter=0;edgeStyle=elbowEdgeStyle;" edge="1" parent="1" source="4" target="11">
                    <mxGeometry relative="1" as="geometry"/>
                </mxCell>
                <mxCell id="4" value="sel" style="verticalLabelPosition=bottom;shadow=0;dashed=0;align=center;html=1;verticalAlign=top;shape=mxgraph.electrical.logic_gates.inverting_contact;" vertex="1" parent="1">
                    <mxGeometry x="230" y="630" width="10" height="10" as="geometry"/>
                </mxCell>
                <mxCell id="16" style="edgeStyle=elbowEdgeStyle;html=1;exitX=1;exitY=0.5;exitDx=0;exitDy=0;exitPerimeter=0;entryX=0;entryY=0.75;entryDx=0;entryDy=0;entryPerimeter=0;" edge="1" parent="1" source="5" target="7">
                    <mxGeometry relative="1" as="geometry">
                        <Array as="points">
                            <mxPoint x="160" y="460"/>
                        </Array>
                    </mxGeometry>
                </mxCell>
                <mxCell id="22" value="notSel" style="edgeLabel;html=1;align=center;verticalAlign=middle;resizable=0;points=[];" vertex="1" connectable="0" parent="16">
                    <mxGeometry x="-0.766" relative="1" as="geometry">
                        <mxPoint as="offset"/>
                    </mxGeometry>
                </mxCell>
                <mxCell id="5" value="" style="verticalLabelPosition=bottom;shadow=0;dashed=0;align=center;html=1;verticalAlign=top;shape=mxgraph.electrical.logic_gates.inverter_2;direction=north;" vertex="1" parent="1">
                    <mxGeometry x="130" y="500" width="60" height="100" as="geometry"/>
                </mxCell>
                <mxCell id="18" style="edgeStyle=elbowEdgeStyle;html=1;entryX=0;entryY=0.25;entryDx=0;entryDy=0;entryPerimeter=0;" edge="1" parent="1" source="7" target="25">
                    <mxGeometry relative="1" as="geometry">
                        <mxPoint x="430" y="365" as="targetPoint"/>
                    </mxGeometry>
                </mxCell>
                <mxCell id="23" value="aMod" style="edgeLabel;html=1;align=center;verticalAlign=middle;resizable=0;points=[];" vertex="1" connectable="0" parent="18">
                    <mxGeometry x="-0.6" y="-2" relative="1" as="geometry">
                        <mxPoint as="offset"/>
                    </mxGeometry>
                </mxCell>
                <mxCell id="7" value="" style="verticalLabelPosition=bottom;shadow=0;dashed=0;align=center;html=1;verticalAlign=top;shape=mxgraph.electrical.logic_gates.logic_gate;operation=and;" vertex="1" parent="1">
                    <mxGeometry x="280" y="310" width="100" height="60" as="geometry"/>
                </mxCell>
                <mxCell id="19" style="edgeStyle=elbowEdgeStyle;html=1;exitX=1;exitY=0.5;exitDx=0;exitDy=0;exitPerimeter=0;entryX=0;entryY=0.75;entryDx=0;entryDy=0;entryPerimeter=0;" edge="1" parent="1" source="11" target="25">
                    <mxGeometry relative="1" as="geometry">
                        <mxPoint x="430" y="395" as="targetPoint"/>
                    </mxGeometry>
                </mxCell>
                <mxCell id="24" value="bMod" style="edgeLabel;html=1;align=center;verticalAlign=middle;resizable=0;points=[];" vertex="1" connectable="0" parent="19">
                    <mxGeometry x="-0.4933" y="2" relative="1" as="geometry">
                        <mxPoint as="offset"/>
                    </mxGeometry>
                </mxCell>
                <mxCell id="11" value="" style="verticalLabelPosition=bottom;shadow=0;dashed=0;align=center;html=1;verticalAlign=top;shape=mxgraph.electrical.logic_gates.logic_gate;operation=and;" vertex="1" parent="1">
                    <mxGeometry x="280" y="390" width="100" height="60" as="geometry"/>
                </mxCell>
                <mxCell id="21" style="edgeStyle=elbowEdgeStyle;html=1;exitX=1;exitY=0.5;exitDx=0;exitDy=0;exitPerimeter=0;entryX=0.1;entryY=0.5;entryDx=0;entryDy=0;entryPerimeter=0;" edge="1" parent="1" target="20">
                    <mxGeometry relative="1" as="geometry">
                        <mxPoint x="530" y="380" as="sourcePoint"/>
                    </mxGeometry>
                </mxCell>
                <mxCell id="20" value="out" style="verticalLabelPosition=bottom;shadow=0;dashed=0;align=center;html=1;verticalAlign=top;shape=mxgraph.electrical.logic_gates.inverting_contact;" vertex="1" parent="1">
                    <mxGeometry x="590" y="375" width="10" height="10" as="geometry"/>
                </mxCell>
                <mxCell id="25" value="" style="verticalLabelPosition=bottom;shadow=0;dashed=0;align=center;html=1;verticalAlign=top;shape=mxgraph.electrical.logic_gates.logic_gate;operation=or;" vertex="1" parent="1">
                    <mxGeometry x="470" y="350" width="100" height="60" as="geometry"/>
                </mxCell>
            </root>
        </mxGraphModel>
    </diagram>
</mxfile>